# 1x1x1 Unit Cube model
# Vertices range from -0.5 to 0.5

o Cube
# Vertices (v)
v -0.5 -0.5  0.5
v  0.5 -0.5  0.5
v -0.5  0.5  0.5
v  0.5  0.5  0.5
v -0.5 -0.5 -0.5
v  0.5 -0.5 -0.5
v -0.5  0.5 -0.5
v  0.5  0.5 -0.5

# Texture Coordinates (vt)
vt 0.0 0.0
vt 1.0 0.0
vt 0.0 1.0
vt 1.0 1.0

# Vertex Normals (vn)
vn  0.0  0.0  1.0
vn  0.0  0.0 -1.0
vn  0.0  1.0  0.0
vn  0.0 -1.0  0.0
vn  1.0  0.0  0.0
vn -1.0  0.0  0.0

# Faces (vvtvn)
# Front face (+Z)
f 1/1/1 2/2/1 4/4/1
f 1/1/1 4/4/1 3/3/1

# Back face (-Z)
f 6/1/2 5/2/2 7/4/2
f 6/1/2 7/4/2 8/3/2

# Top face (+Y)
f 3/1/3 4/2/3 8/4/3
f 3/1/3 8/4/3 7/3/3

# Bottom face (-Y)
f 5/1/4 6/2/4 2/4/4
f 5/1/4 2/4/4 1/3/4

# Right face (+X)
f 2/1/5 6/2/5 8/4/5
f 2/1/5 8/4/5 4/3/5

# Left face (-X)
f 5/1/6 1/2/6 3/4/6
f 5/1/6 3/4/6 7/3/6